<?xml version="1.0" encoding="iso-8859-1"?>
<!-- Generator: Adobe Illustrator 19.0.0, SVG Export Plug-In . SVG Version: 6.00 Build 0)  -->
<svg xmlns="http://www.w3.org/2000/svg" xmlns:xlink="http://www.w3.org/1999/xlink" version="1.1" id="Layer_1" x="0px" y="0px" viewBox="0 0 410.204 410.204" style="enable-background:new 0 0 410.204 410.204;" xml:space="preserve" width="512" height="512">
<g>
	<rect x="166.345" y="347.376" style="fill:#CCCCCC;" width="142.49" height="32.59"/>
	<rect x="166.345" y="347.376" style="fill:#B3B3B3;" width="38.995" height="32.59"/>
	<path style="fill:#E6E6E6;" d="M383.765,198.386h18.94c0,65.68-38.35,122.39-93.87,148.99h-142.49   c-55.52-26.6-93.87-83.31-93.87-148.99h18.95h92.99h106.35H383.765z"/>
	<path style="fill:#CCCCCC;" d="M160.971,198.385H91.425h-18.95c0,65.68,38.35,122.39,93.87,148.99h88.496   C199.321,320.776,160.971,264.066,160.971,198.385z"/>
	<path style="fill:#90BC42;" d="M344.475,142.176c2.2,2.76,2.72,6.59,2.71,10.78c-3.2-0.69-6.51-1.06-9.92-1.06   c-17.42,0-32.61,9.58-40.57,23.76l-127.12-11.33c-3.84-3.57-8.29-6.5-13.17-8.61l157.69-24.24   C321.685,137.536,338.415,134.586,344.475,142.176z"/>
	<path style="fill:#9AD14B;" d="M169.575,164.326l127.12,11.33c-3.78,6.72-5.93,14.47-5.93,22.73h-106.35   C184.415,184.936,178.705,172.816,169.575,164.326z"/>
	<path style="fill:#9AD14B;" d="M314.095,131.476l-157.69,24.24c-5.66-2.46-11.91-3.82-18.48-3.82c-2.75,0-5.45,0.24-8.07,0.7   l-1.8-1.8c0.17-3.34,0.84-6.35,2.66-8.62c6.06-7.59,22.79-4.64,30.38-10.7c7.55-6.03,8.38-23.01,17.17-27.25   c8.65-4.17,22.43,5.72,32.01,3.54c9.29-2.11,17.4-17.05,27.32-17.05s18.04,14.94,27.32,17.05c9.58,2.18,23.36-7.71,32.01-3.54   C305.715,108.466,306.545,125.446,314.095,131.476z"/>
	<path style="fill:#F95428;" d="M169.575,164.326c9.13,8.49,14.84,20.61,14.84,34.06h-92.99c0-22.27,15.66-40.89,36.58-45.43   c0.61-0.13,1.23-0.25,1.85-0.36c2.62-0.46,5.32-0.7,8.07-0.7c6.57,0,12.82,1.36,18.48,3.82   C161.285,157.826,165.735,160.756,169.575,164.326z"/>
	<path style="fill:#F95428;" d="M296.695,175.656c7.96-14.18,23.15-23.76,40.57-23.76c3.41,0,6.72,0.37,9.92,1.06   c20.92,4.54,36.58,23.16,36.58,45.43h-93C290.765,190.126,292.915,182.376,296.695,175.656z"/>
	<path style="fill:#F7B239;" d="M90.145,78.256c8.99,8.98,8.99,23.54,0,32.52l-1.05,1.06l-1.06,1.06c-8.98,8.98-23.54,8.98-32.53,0   l-41.27-41.28c-8.98-8.98-8.98-23.54,0-32.52l2.11-2.12c8.99-8.98,23.55-8.98,32.53,0L90.145,78.256z"/>
	<path style="fill:#FFFFFF;" d="M360.765,205.885c-4.142,0-7.5-3.357-7.5-7.5c0-7.475-5.277-14.046-12.549-15.624   c-1.124-0.242-2.289-0.366-3.451-0.366c-4.142,0-7.5-3.357-7.5-7.5s3.358-7.5,7.5-7.5c2.224,0,4.452,0.237,6.623,0.706   c14.129,3.066,24.377,15.802,24.377,30.284C368.265,202.528,364.907,205.885,360.765,205.885z"/>
	<path style="fill:#FFFFFF;" d="M160.265,205.885c-4.142,0-7.5-3.357-7.5-7.5c0-7.475-5.277-14.046-12.549-15.624   c-1.124-0.242-2.289-0.366-3.451-0.366c-4.142,0-7.5-3.357-7.5-7.5s3.358-7.5,7.5-7.5c2.224,0,4.452,0.237,6.623,0.706   c14.129,3.066,24.377,15.802,24.377,30.284C167.765,202.528,164.407,205.885,160.265,205.885z"/>
	<path style="fill:#E09B2D;" d="M95.255,103.015c-1.12,2.83-2.82,5.47-5.11,7.76l-1.05,1.06l-1.06,1.06   c-8.98,8.98-23.54,8.98-32.53,0l-41.27-41.28c-8.98-8.98-8.98-23.54,0-32.52l2.11-2.12c2.29-2.29,4.95-4,7.78-5.11   c-3.29,8.27-1.58,18.06,5.11,24.75l41.27,41.28C77.205,104.586,86.985,106.296,95.255,103.015z"/>
	<path style="fill:#FFFFFF;" d="M298.902,334.135c-2.796,0-5.48-1.571-6.769-4.262c-1.79-3.735-0.212-8.214,3.523-10.004   c22.586-10.821,41.701-27.705,55.277-48.826c5.538-8.615,10.083-17.868,13.51-27.502c1.389-3.902,5.681-5.941,9.58-4.553   c3.903,1.388,5.941,5.677,4.553,9.58c-3.811,10.714-8.866,21.005-15.024,30.586c-15.081,23.462-36.318,42.219-61.414,54.242   C301.092,333.898,299.989,334.135,298.902,334.135z"/>
	<circle style="fill:#FFFFFF;" cx="287.718" cy="363.022" r="7.5"/>
	<circle style="fill:#FFFFFF;" cx="377.848" cy="221.385" r="7.5"/>
	<path style="fill:#333333;" d="M402.704,190.89h-11.975c-2.862-20.498-17.268-37.336-36.421-43.726   c-0.491-3.266-1.589-6.676-3.976-9.671c-5.073-6.354-13.356-7.692-20.664-8.872c-4.189-0.677-8.938-1.444-10.896-3.008   c-1.931-1.542-3.722-5.98-5.301-9.896c-2.779-6.889-5.928-14.697-13.292-18.249c-7.251-3.494-15.249-1.128-22.304,0.96   c-4.112,1.218-8.773,2.599-11.3,2.022c-2.306-0.524-5.79-3.692-8.864-6.488c-5.541-5.038-11.82-10.749-20.119-10.749   c-8.297,0-14.573,5.709-20.111,10.745c-3.075,2.797-6.56,5.967-8.874,6.492c-2.524,0.577-7.187-0.805-11.299-2.022   c-7.057-2.089-15.052-4.455-22.305-0.96c-7.364,3.552-10.513,11.36-13.292,18.25c-1.579,3.915-3.37,8.354-5.299,9.895   c-1.959,1.564-6.708,2.332-10.898,3.009c-7.196,1.162-15.33,2.487-20.426,8.6l-25.809-25.809   c7.886-11.843,6.612-28.026-3.826-38.464L54.18,31.677c-5.76-5.762-13.419-8.935-21.566-8.935s-15.806,3.173-21.567,8.934   L8.933,33.79C3.172,39.551,0,47.21,0,55.356c0,8.147,3.172,15.807,8.933,21.567l41.272,41.272   c5.946,5.945,13.756,8.918,21.566,8.918c5.902,0,11.802-1.7,16.899-5.095l27.131,27.131c-16.59,7.482-28.743,23.097-31.346,41.74   H72.48c-4.142,0-7.5,3.357-7.5,7.5c0,33.183,9.441,65.411,27.303,93.202c16.528,25.716,39.474,46.531,66.562,60.436v27.933   c0,4.143,3.358,7.5,7.5,7.5h142.493c4.142,0,7.5-3.357,7.5-7.5v-27.933c27.088-13.904,50.034-34.72,66.562-60.436   c17.862-27.791,27.303-60.02,27.303-93.202C410.204,194.248,406.846,190.89,402.704,190.89z M375.53,190.89h-76.533   c3.507-17.927,19.328-31.498,38.266-31.498S372.023,172.964,375.53,190.89z M191.385,190.89c-0.876-6.272-2.831-12.2-5.674-17.593   l100.035,8.909c-0.883,2.803-1.533,5.707-1.948,8.685H191.385z M327.275,143.429c1.959,0.316,4.129,0.668,6.065,1.121   c-16.789,1.212-31.472,10.125-40.523,23.225l-104.813-9.334l124.429-19.125C316.99,141.767,322.397,142.641,327.275,143.429z    M147.905,143.429c6.013-0.972,12.827-2.072,17.866-6.095c5.007-4,7.469-10.104,9.85-16.005c1.675-4.152,3.759-9.318,5.896-10.35   c2.034-0.979,7.3,0.578,11.532,1.832c5.875,1.739,12.531,3.709,18.882,2.266c6.161-1.399,10.98-5.783,15.641-10.022   c3.351-3.048,7.522-6.842,10.018-6.842c2.498,0,6.673,3.797,10.027,6.847c4.659,4.237,9.477,8.618,15.629,10.018   c6.352,1.443,13.011-0.527,18.885-2.266c4.232-1.254,9.498-2.811,11.531-1.833c2.138,1.031,4.222,6.198,5.897,10.35   c0.605,1.5,1.216,3.014,1.873,4.503L157.266,147.99c-4.846-1.867-10.025-3.049-15.423-3.439   C143.777,144.097,145.947,143.746,147.905,143.429z M60.812,107.589L19.54,66.316C16.612,63.389,15,59.497,15,55.356   c0-4.14,1.612-8.032,4.54-10.959l2.113-2.113c2.928-2.928,6.82-4.541,10.96-4.541s8.032,1.613,10.96,4.541l41.272,41.271   c6.043,6.043,6.043,15.877,0,21.92l-2.113,2.113C76.688,113.633,66.855,113.633,60.812,107.589z M137.92,159.392   c18.938,0,34.759,13.571,38.266,31.498H99.654C103.161,172.964,118.982,159.392,137.92,159.392z M173.845,372.461v-17.583h127.493   v17.583H173.845z M370.282,283.482c-15.585,24.249-37.425,43.708-63.213,56.396H168.115   c-25.788-12.687-47.628-32.146-63.213-56.396c-14.956-23.269-23.444-49.95-24.746-77.592h314.871   C393.726,233.532,385.237,260.214,370.282,283.482z"/>
</g>















</svg>
